<svg width="30" height="30" viewBox="0 0 30 30" fill="none" xmlns="http://www.w3.org/2000/svg">
<path d="M9.5998 1.79999C5.2993 1.79999 1.7998 5.29948 1.7998 9.59999V20.4C1.7998 24.7005 5.2993 28.2 9.5998 28.2H20.3998C24.7003 28.2 28.1998 24.7005 28.1998 20.4V9.59999C28.1998 5.29948 24.7003 1.79999 20.3998 1.79999H9.5998ZM9.5998 2.99999H20.3998C24.0517 2.99999 26.9998 5.9481 26.9998 9.59999V20.4C26.9998 24.0519 24.0517 27 20.3998 27H9.5998C5.94791 27 2.9998 24.0519 2.9998 20.4V9.59999C2.9998 5.9481 5.94791 2.99999 9.5998 2.99999ZM22.1998 6.59999C21.8815 6.59999 21.5763 6.72642 21.3513 6.95146C21.1262 7.1765 20.9998 7.48173 20.9998 7.79999C20.9998 8.11825 21.1262 8.42347 21.3513 8.64852C21.5763 8.87356 21.8815 8.99999 22.1998 8.99999C22.5181 8.99999 22.8233 8.87356 23.0483 8.64852C23.2734 8.42347 23.3998 8.11825 23.3998 7.79999C23.3998 7.48173 23.2734 7.1765 23.0483 6.95146C22.8233 6.72642 22.5181 6.59999 22.1998 6.59999ZM14.9998 8.39999C11.3618 8.39999 8.39981 11.362 8.39981 15C8.39981 18.638 11.3618 21.6 14.9998 21.6C18.6378 21.6 21.5998 18.638 21.5998 15C21.5998 11.362 18.6378 8.39999 14.9998 8.39999ZM14.9998 9.59999C17.9893 9.59999 20.3998 12.0105 20.3998 15C20.3998 17.9894 17.9893 20.4 14.9998 20.4C12.0104 20.4 9.5998 17.9894 9.5998 15C9.5998 12.0105 12.0104 9.59999 14.9998 9.59999Z" fill="black"/>
</svg>
