<svg width="30" height="30" viewBox="0 0 30 30" fill="none" xmlns="http://www.w3.org/2000/svg">
<path d="M15.0002 1.20001C7.38592 1.20001 1.2002 7.38573 1.2002 15C1.2002 17.4475 1.87141 19.7315 2.99082 21.7254L1.22246 28.0383C1.19421 28.1393 1.19293 28.246 1.21876 28.3476C1.24458 28.4493 1.29661 28.5424 1.36965 28.6177C1.44268 28.693 1.53418 28.7478 1.63502 28.7767C1.73585 28.8056 1.8425 28.8076 1.94434 28.7824L8.52676 27.1512C10.461 28.1838 12.6557 28.8 15.0002 28.8C22.6145 28.8 28.8002 22.6143 28.8002 15C28.8002 7.38573 22.6145 1.20001 15.0002 1.20001ZM15.0002 2.40001C21.9659 2.40001 27.6002 8.03429 27.6002 15C27.6002 21.9657 21.9659 27.6 15.0002 27.6C12.767 27.6 10.6755 27.0178 8.85723 26.0004C8.72424 25.9261 8.56798 25.9051 8.42012 25.9418L2.65566 27.3703L4.20137 21.8555C4.22348 21.7775 4.22959 21.6959 4.21932 21.6156C4.20905 21.5352 4.18261 21.4578 4.1416 21.3879C3.03661 19.5142 2.4002 17.3341 2.4002 15C2.4002 8.03429 8.03447 2.40001 15.0002 2.40001ZM9.98574 7.80001C9.60112 7.80001 9.05182 7.94311 8.60059 8.42931C8.32956 8.72134 7.20019 9.82172 7.20019 11.7563C7.20019 13.7732 8.59903 15.5135 8.76816 15.7371H8.76934V15.7383C8.75329 15.7172 8.98401 16.0513 9.29199 16.452C9.59997 16.8526 10.0306 17.3788 10.5717 17.9484C11.6538 19.0878 13.1752 20.4045 15.0635 21.2098C15.9331 21.5801 16.6191 21.8037 17.1389 21.9668C18.1021 22.2693 18.9794 22.2233 19.6385 22.1262C20.1318 22.0535 20.6743 21.8167 21.2111 21.477C21.7479 21.1372 22.274 20.7148 22.5061 20.0731C22.6723 19.613 22.7567 19.1878 22.7873 18.8379C22.8026 18.663 22.8045 18.5086 22.7932 18.3656C22.7818 18.2227 22.7939 18.1132 22.6607 17.8945C22.3814 17.4359 22.065 17.4239 21.735 17.2606C21.5516 17.1698 21.0294 16.9148 20.5057 16.6652C19.9825 16.416 19.5295 16.1952 19.2506 16.0957C19.0743 16.0323 18.8591 15.941 18.5486 15.9762C18.2381 16.0113 17.9315 16.2354 17.7529 16.5C17.5837 16.7509 16.9024 17.555 16.6947 17.7914C16.692 17.7897 16.71 17.798 16.6279 17.7574C16.3711 17.6303 16.0569 17.5222 15.592 17.277C15.1271 17.0317 14.5455 16.6696 13.9092 16.1086V16.1074C12.962 15.2736 12.2986 14.2267 12.0893 13.875C12.1034 13.8582 12.0876 13.8786 12.1174 13.8492L12.1186 13.8481C12.3325 13.6374 12.522 13.3857 12.6822 13.2012C12.9093 12.9395 13.0096 12.7089 13.1182 12.4934C13.3346 12.0639 13.2141 11.5913 13.0889 11.3426V11.3414C13.0975 11.3586 13.0211 11.1901 12.9389 10.9957C12.8564 10.8008 12.7512 10.548 12.6389 10.2785C12.4142 9.73951 12.1634 9.13496 12.0143 8.78087V8.7797C11.8385 8.36262 11.6008 8.06216 11.29 7.9172C10.9792 7.77224 10.7047 7.81345 10.6936 7.8129H10.6924C10.4706 7.80267 10.2272 7.80001 9.98574 7.80001ZM9.98574 9.00001C10.2171 9.00001 10.4451 9.00283 10.6361 9.01173C10.8326 9.02152 10.8204 9.02233 10.7826 9.0047C10.7442 8.98679 10.7963 8.98098 10.908 9.24611C11.0541 9.59282 11.3061 10.1996 11.5314 10.7402C11.6441 11.0106 11.7496 11.2643 11.8338 11.4633C11.918 11.6623 11.9636 11.7734 12.0166 11.8793V11.8805L12.0178 11.8817C12.0697 11.9841 12.0651 11.9185 12.0471 11.9543C11.9205 12.2056 11.9033 12.2673 11.7752 12.4149C11.5802 12.6395 11.3813 12.8901 11.276 12.9938C11.1839 13.0843 11.0176 13.2252 10.9139 13.5012C10.8099 13.7776 10.8584 14.1568 11.0252 14.4399C11.2472 14.8168 11.9788 16.0076 13.1158 17.0086C13.8319 17.6398 14.4989 18.0576 15.0318 18.3387C15.5647 18.6198 15.9988 18.784 16.0959 18.832C16.3265 18.9462 16.5786 19.0348 16.8717 18.9996C17.1648 18.9644 17.4175 18.7866 17.5783 18.6047L17.5795 18.6035C17.7936 18.3608 18.4297 17.6344 18.735 17.1867C18.7479 17.1913 18.7437 17.1877 18.8451 17.2242V17.2254H18.8463C18.8926 17.2419 19.4728 17.5016 19.99 17.7481C20.5073 17.9945 21.0323 18.2507 21.2029 18.3352C21.4491 18.457 21.5655 18.5363 21.5955 18.5367C21.5975 18.5895 21.5996 18.6467 21.592 18.7336C21.5709 18.9746 21.5065 19.3081 21.3775 19.6652C21.3143 19.8401 20.9852 20.2006 20.5701 20.4633C20.155 20.726 19.6498 20.9115 19.4627 20.9391C18.9001 21.022 18.2322 21.0522 17.4986 20.8219C16.99 20.6622 16.3558 20.4556 15.5346 20.1059C13.8691 19.3956 12.4535 18.1869 11.4424 17.1223C10.9368 16.59 10.5317 16.0944 10.2436 15.7195C9.95591 15.3454 9.83031 15.1506 9.72558 15.0129L9.72441 15.0117C9.53852 14.7659 8.4002 13.1825 8.4002 11.7563C8.4002 10.2468 9.10129 9.65487 9.48066 9.24611C9.67983 9.03151 9.89756 9.00001 9.98574 9.00001Z" fill="black"/>
</svg>
